<svg width="31" height="29" viewBox="0 0 31 29" fill="none" xmlns="http://www.w3.org/2000/svg">
<path d="M15.4125 6.8943C16.9023 6.8943 18.1096 7.99272 18.1096 9.34823C18.1096 10.7037 16.9023 11.8022 15.4125 11.8022C13.9226 11.8022 12.7153 10.7037 12.7153 9.34823C12.7153 7.99272 13.9226 6.8943 15.4125 6.8943ZM15.4125 17.4111C19.227 17.4111 23.2471 19.1172 23.2471 19.8651V21.1505H7.57776V19.8651C7.57776 19.1172 11.5979 17.4111 15.4125 17.4111ZM15.4125 4.67407C12.574 4.67407 10.275 6.76576 10.275 9.34823C10.275 11.9307 12.574 14.0224 15.4125 14.0224C18.2509 14.0224 20.55 11.9307 20.55 9.34823C20.55 6.76576 18.2509 4.67407 15.4125 4.67407ZM15.4125 15.1909C11.9832 15.1909 5.13745 16.7568 5.13745 19.8651V23.3707H25.6875V19.8651C25.6875 16.7568 18.8417 15.1909 15.4125 15.1909Z" fill="#4B4B4B"/>
</svg>
